<svg width="15" height="15" viewBox="0 0 15 15" fill="none" xmlns="http://www.w3.org/2000/svg">
<g clip-path="url(#clip0_3_796)">
<path d="M12.5391 6.56262H8.4375C8.06454 6.56262 7.70685 6.41446 7.44313 6.15074C7.17941 5.88702 7.03125 5.52933 7.03125 5.15637V1.05481C7.03125 1.02373 7.0189 0.993922 6.99693 0.971946C6.97495 0.949969 6.94514 0.937622 6.91406 0.937622H4.21875C3.72147 0.937622 3.24456 1.13517 2.89292 1.4868C2.54129 1.83843 2.34375 2.31534 2.34375 2.81262V12.1876C2.34375 12.6849 2.54129 13.1618 2.89292 13.5134C3.24456 13.8651 3.72147 14.0626 4.21875 14.0626H10.7812C11.2785 14.0626 11.7554 13.8651 12.1071 13.5134C12.4587 13.1618 12.6562 12.6849 12.6562 12.1876V6.67981C12.6562 6.64873 12.6439 6.61892 12.6219 6.59694C12.5999 6.57497 12.5701 6.56262 12.5391 6.56262Z" fill="white"/>
<path d="M12.2818 5.52594L8.06865 1.31275C8.06046 1.30461 8.05004 1.29907 8.03871 1.29683C8.02737 1.29459 8.01563 1.29575 8.00495 1.30016C7.99428 1.30458 7.98514 1.31205 7.9787 1.32164C7.97226 1.33123 7.9688 1.34251 7.96875 1.35406V5.15709C7.96875 5.28141 8.01814 5.40064 8.10604 5.48855C8.19395 5.57645 8.31318 5.62584 8.4375 5.62584H12.2405C12.2521 5.62579 12.2634 5.62233 12.273 5.61589C12.2825 5.60945 12.29 5.60031 12.2944 5.58964C12.2988 5.57896 12.3 5.56722 12.2978 5.55588C12.2955 5.54455 12.29 5.53413 12.2818 5.52594Z" fill="white"/>
</g>
<defs>
<clipPath id="clip0_3_796">
<rect width="15" height="15" fill="white"/>
</clipPath>
</defs>
</svg>
