<svg width="16" height="16" viewBox="0 0 16 16" fill="none" xmlns="http://www.w3.org/2000/svg">
<path d="M1.4375 11.5152C1.4375 11.9503 1.61035 12.3676 1.91803 12.6753C2.2257 12.983 2.643 13.1559 3.07812 13.1559H12.9219C13.357 13.1559 13.7743 12.983 14.082 12.6753C14.3896 12.3676 14.5625 11.9503 14.5625 11.5152V7.00351H1.4375V11.5152ZM3.37109 9.28867C3.37109 9.05557 3.46369 8.83201 3.62852 8.66719C3.79335 8.50236 4.0169 8.40976 4.25 8.40976H5.65625C5.88935 8.40976 6.1129 8.50236 6.27773 8.66719C6.44256 8.83201 6.53515 9.05557 6.53515 9.28867V9.8746C6.53515 10.1077 6.44256 10.3313 6.27773 10.4961C6.1129 10.6609 5.88935 10.7535 5.65625 10.7535H4.25C4.0169 10.7535 3.79335 10.6609 3.62852 10.4961C3.46369 10.3313 3.37109 10.1077 3.37109 9.8746V9.28867Z" fill="white"/>
<path d="M12.9219 2.84299H3.07812C2.643 2.84299 2.2257 3.01584 1.91803 3.32351C1.61035 3.63119 1.4375 4.04849 1.4375 4.48361V5.24533H14.5625V4.48361C14.5625 4.04849 14.3896 3.63119 14.082 3.32351C13.7743 3.01584 13.357 2.84299 12.9219 2.84299Z" fill="white"/>
</svg>
