<svg width="17" height="15" viewBox="0 0 17 15" fill="none" xmlns="http://www.w3.org/2000/svg">
<path d="M12.0418 13.875V12.4583C12.0418 11.7069 11.7433 10.9862 11.212 10.4549C10.6806 9.92352 9.95994 9.62501 9.2085 9.62501H3.54183C2.79038 9.62501 2.06971 9.92352 1.53836 10.4549C1.00701 10.9862 0.708496 11.7069 0.708496 12.4583V13.875M16.2918 13.875V12.4583C16.2914 11.8306 16.0824 11.2207 15.6978 10.7246C15.3132 10.2284 14.7747 9.87403 14.1668 9.71709M11.3335 1.21709C11.943 1.37314 12.4831 1.72759 12.8689 2.22456C13.2547 2.72153 13.4641 3.33276 13.4641 3.96188C13.4641 4.591 13.2547 5.20223 12.8689 5.6992C12.4831 6.19618 11.943 6.55063 11.3335 6.70667M9.2085 3.95834C9.2085 5.52315 7.93997 6.79167 6.37516 6.79167C4.81036 6.79167 3.54183 5.52315 3.54183 3.95834C3.54183 2.39353 4.81036 1.12501 6.37516 1.12501C7.93997 1.12501 9.2085 2.39353 9.2085 3.95834Z" stroke="white" stroke-width="1.5" stroke-linecap="round" stroke-linejoin="round"/>
</svg>
