<svg width="16" height="16" viewBox="0 0 16 16" fill="none" xmlns="http://www.w3.org/2000/svg">
<g clip-path="url(#clip0_3_815)">
<path d="M8.16289 3.46754C8.11927 3.42581 8.06124 3.40253 8.00088 3.40253C7.94052 3.40253 7.88248 3.42581 7.83887 3.46754L2.44531 8.61998C2.42241 8.64189 2.40418 8.66822 2.39175 8.69738C2.37931 8.72653 2.37291 8.75791 2.37295 8.78961L2.37207 13.6253C2.37207 13.874 2.47084 14.1124 2.64666 14.2883C2.82247 14.4641 3.06093 14.5628 3.30957 14.5628H6.125C6.24932 14.5628 6.36855 14.5135 6.45645 14.4256C6.54436 14.3376 6.59375 14.2184 6.59375 14.0941V10.1097C6.59375 10.0476 6.61844 9.98795 6.6624 9.944C6.70635 9.90004 6.76596 9.87535 6.82812 9.87535H9.17187C9.23403 9.87535 9.29365 9.90004 9.3376 9.944C9.38155 9.98795 9.40625 10.0476 9.40625 10.1097V14.0941C9.40625 14.2184 9.45563 14.3376 9.54354 14.4256C9.63145 14.5135 9.75068 14.5628 9.875 14.5628H12.6893C12.9379 14.5628 13.1764 14.4641 13.3522 14.2883C13.528 14.1124 13.6268 13.874 13.6268 13.6253V8.78961C13.6268 8.75791 13.6204 8.72653 13.608 8.69738C13.5955 8.66822 13.5773 8.64189 13.5544 8.61998L8.16289 3.46754Z" fill="white"/>
<path d="M14.8826 7.65375L12.6912 5.55726V2.37592C12.6912 2.2516 12.6418 2.13237 12.5539 2.04446C12.466 1.95655 12.3468 1.90717 12.2225 1.90717H10.8162C10.6919 1.90717 10.5727 1.95655 10.4848 2.04446C10.3969 2.13237 10.3475 2.2516 10.3475 2.37592V3.31342L8.65059 1.69095C8.4918 1.53041 8.25567 1.43842 8.0005 1.43842C7.7462 1.43842 7.51065 1.53041 7.35186 1.69125L1.12042 7.65316C0.938195 7.82894 0.915343 8.1181 1.08116 8.30853C1.1228 8.3566 1.17379 8.39569 1.23102 8.42343C1.28824 8.45116 1.35052 8.46697 1.41405 8.46987C1.47757 8.47278 1.54103 8.46272 1.60055 8.44033C1.66007 8.41793 1.71441 8.38365 1.76026 8.33959L7.83936 2.5306C7.88298 2.48888 7.94102 2.46559 8.00138 2.46559C8.06174 2.46559 8.11977 2.48888 8.16339 2.5306L14.2431 8.33959C14.3326 8.42547 14.4526 8.47234 14.5766 8.46992C14.7007 8.46751 14.8187 8.416 14.9049 8.3267C15.0848 8.14037 15.0698 7.83275 14.8826 7.65375Z" fill="white"/>
</g>
<defs>
<clipPath id="clip0_3_815">
<rect width="15" height="15" fill="white" transform="translate(0.5 0.500031)"/>
</clipPath>
</defs>
</svg>
