<svg width="15" height="15" viewBox="0 0 15 15" fill="none" xmlns="http://www.w3.org/2000/svg">
<path d="M9.74534 1.89176C9.17522 1.27623 8.37893 0.937267 7.50003 0.937267C6.61643 0.937267 5.81751 1.27418 5.25003 1.8859C4.6764 2.50436 4.3969 3.34488 4.46253 4.2525C4.59261 6.04313 5.9552 7.49977 7.50003 7.49977C9.04485 7.49977 10.4051 6.04342 10.5372 4.25309C10.6037 3.35367 10.3225 2.5149 9.74534 1.89176Z" fill="white"/>
<path d="M12.6562 14.0616H2.34367C2.20869 14.0634 2.07502 14.035 1.95237 13.9786C1.82973 13.9222 1.7212 13.8392 1.63469 13.7355C1.44426 13.5079 1.3675 13.1971 1.42434 12.8827C1.6716 11.511 2.44328 10.3588 3.65617 9.54989C4.73371 8.83182 6.09865 8.43661 7.49992 8.43661C8.90119 8.43661 10.2661 8.83212 11.3437 9.54989C12.5566 10.3585 13.3282 11.5107 13.5755 12.8824C13.6323 13.1968 13.5556 13.5076 13.3652 13.7352C13.2787 13.8389 13.1702 13.922 13.0475 13.9785C12.9249 14.0349 12.7912 14.0633 12.6562 14.0616V14.0616Z" fill="white"/>
</svg>
