<svg width="43" height="43" viewBox="0 0 43 43" fill="none" xmlns="http://www.w3.org/2000/svg">
<path d="M43 21.5C43 33.3741 33.3741 43 21.5 43C9.62588 43 0 33.3741 0 21.5C0 9.62588 9.62588 0 21.5 0C33.3741 0 43 9.62588 43 21.5Z" fill="#FFCD92"/>
<path d="M19.5682 24.767V24.4773C19.5739 23.483 19.6619 22.6903 19.8324 22.0994C20.0085 21.5085 20.2642 21.0313 20.5994 20.6676C20.9347 20.304 21.3381 19.9744 21.8097 19.679C22.1619 19.4517 22.4773 19.2159 22.7557 18.9716C23.0341 18.7273 23.2557 18.4574 23.4205 18.1619C23.5852 17.8608 23.6676 17.5256 23.6676 17.1562C23.6676 16.7642 23.5739 16.4205 23.3864 16.125C23.1989 15.8295 22.946 15.6023 22.6278 15.4432C22.3153 15.2841 21.9688 15.2045 21.5881 15.2045C21.2188 15.2045 20.8693 15.2869 20.5398 15.4517C20.2102 15.6108 19.9403 15.8494 19.7301 16.1676C19.5199 16.4801 19.4062 16.8693 19.3892 17.3352H15.9119C15.9403 16.1989 16.2131 15.2614 16.7301 14.5227C17.2472 13.7784 17.9318 13.2244 18.7841 12.8608C19.6364 12.4915 20.5767 12.3068 21.6051 12.3068C22.7358 12.3068 23.7358 12.4943 24.6051 12.8693C25.4744 13.2386 26.1562 13.7756 26.6506 14.4801C27.1449 15.1847 27.392 16.0341 27.392 17.0284C27.392 17.6932 27.2813 18.2841 27.0597 18.8011C26.8438 19.3125 26.5398 19.767 26.1477 20.1648C25.7557 20.5568 25.2926 20.9119 24.7585 21.2301C24.3097 21.4972 23.9403 21.7756 23.6506 22.0653C23.3665 22.3551 23.1534 22.6903 23.0114 23.071C22.875 23.4517 22.804 23.9205 22.7983 24.4773V24.767H19.5682ZM21.2557 30.2216C20.6875 30.2216 20.2017 30.0227 19.7983 29.625C19.4006 29.2216 19.2045 28.7386 19.2102 28.1761C19.2045 27.6193 19.4006 27.142 19.7983 26.7443C20.2017 26.3466 20.6875 26.1477 21.2557 26.1477C21.7955 26.1477 22.2699 26.3466 22.679 26.7443C23.0881 27.142 23.2955 27.6193 23.3011 28.1761C23.2955 28.5511 23.196 28.8949 23.0028 29.2074C22.8153 29.5142 22.5682 29.7614 22.2614 29.9489C21.9545 30.1307 21.6193 30.2216 21.2557 30.2216Z" fill="black"/>
</svg>
