<svg width="45" height="45" viewBox="0 0 45 45" fill="none" xmlns="http://www.w3.org/2000/svg">
<path d="M22.5002 0.968018C10.628 0.968018 0.968994 10.6271 0.968994 22.4993C0.968994 34.3715 10.628 44.0305 22.5002 44.0305C34.3724 44.0305 44.0315 34.3715 44.0315 22.4993C44.0315 10.6271 34.3724 0.968018 22.5002 0.968018ZM33.7058 15.2832L19.7933 31.8457C19.6407 32.0275 19.4508 32.1743 19.2365 32.2763C19.0222 32.3783 18.7884 32.433 18.5511 32.4368H18.5232C18.291 32.4367 18.0615 32.3878 17.8495 32.2933C17.6374 32.1988 17.4476 32.0607 17.2924 31.8881L11.3299 25.2631C11.1784 25.1025 11.0607 24.9133 10.9834 24.7065C10.9062 24.4997 10.871 24.2796 10.8801 24.059C10.8892 23.8385 10.9422 23.6219 11.0361 23.4222C11.1301 23.2224 11.263 23.0435 11.427 22.8958C11.5911 22.7481 11.7831 22.6348 11.9916 22.5624C12.2001 22.4899 12.421 22.4599 12.6413 22.4741C12.8616 22.4883 13.0768 22.5463 13.2743 22.6449C13.4718 22.7434 13.6477 22.8804 13.7915 23.0479L18.4797 28.2568L31.1697 13.1528C31.4543 12.8237 31.857 12.6199 32.2908 12.5853C32.7245 12.5508 33.1545 12.6883 33.4876 12.9681C33.8208 13.248 34.0305 13.6477 34.0713 14.0809C34.1121 14.5141 33.9808 14.946 33.7058 15.2832Z" fill="#01B574"/>
</svg>
