<svg width="16" height="16" viewBox="0 0 16 16" fill="none" xmlns="http://www.w3.org/2000/svg">
<g clip-path="url(#clip0_3_811)">
<path d="M3.54687 15.0316H2.60937C2.42289 15.0316 2.24405 14.9575 2.11219 14.8256C1.98033 14.6938 1.90625 14.5149 1.90625 14.3285V10.1097C1.90625 9.92323 1.98033 9.74439 2.11219 9.61253C2.24405 9.48067 2.42289 9.40659 2.60937 9.40659H3.54687C3.73335 9.40659 3.9122 9.48067 4.04406 9.61253C4.17592 9.74439 4.25 9.92323 4.25 10.1097V14.3285C4.25 14.5149 4.17592 14.6938 4.04406 14.8256C3.9122 14.9575 3.73335 15.0316 3.54687 15.0316Z" fill="white"/>
<path d="M10.1094 15.0308H9.17187C8.98539 15.0308 8.80655 14.9567 8.67469 14.8248C8.54283 14.693 8.46875 14.5141 8.46875 14.3277V7.29642C8.46875 7.10994 8.54283 6.93109 8.67469 6.79923C8.80655 6.66737 8.98539 6.59329 9.17187 6.59329H10.1094C10.2959 6.59329 10.4747 6.66737 10.6066 6.79923C10.7384 6.93109 10.8125 7.10994 10.8125 7.29642V14.3277C10.8125 14.5141 10.7384 14.693 10.6066 14.8248C10.4747 14.9567 10.2959 15.0308 10.1094 15.0308Z" fill="white"/>
<path d="M13.3906 15.0312H12.4531C12.2666 15.0312 12.0878 14.9571 11.9559 14.8252C11.8241 14.6934 11.75 14.5145 11.75 14.328V4.01553C11.75 3.82905 11.8241 3.65021 11.9559 3.51835C12.0878 3.38649 12.2666 3.31241 12.4531 3.31241H13.3906C13.5771 3.31241 13.7559 3.38649 13.8878 3.51835C14.0197 3.65021 14.0937 3.82905 14.0937 4.01553V14.328C14.0937 14.5145 14.0197 14.6934 13.8878 14.8252C13.7559 14.9571 13.5771 15.0312 13.3906 15.0312Z" fill="white"/>
<path d="M6.82812 15.031H5.89062C5.70414 15.031 5.5253 14.9569 5.39344 14.825C5.26158 14.6932 5.1875 14.5143 5.1875 14.3278V1.6716C5.1875 1.48512 5.26158 1.30628 5.39344 1.17442C5.5253 1.04255 5.70414 0.968475 5.89062 0.968475H6.82812C7.0146 0.968475 7.19345 1.04255 7.32531 1.17442C7.45717 1.30628 7.53125 1.48512 7.53125 1.6716V14.3278C7.53125 14.5143 7.45717 14.6932 7.32531 14.825C7.19345 14.9569 7.0146 15.031 6.82812 15.031Z" fill="white"/>
</g>
<defs>
<clipPath id="clip0_3_811">
<rect width="15" height="15" fill="white" transform="translate(0.5 0.499969)"/>
</clipPath>
</defs>
</svg>
