<svg width="47" height="37" viewBox="0 0 47 37" fill="none" xmlns="http://www.w3.org/2000/svg">
<path d="M0.3125 30.9204C0.3125 32.4578 0.92324 33.9323 2.01036 35.0194C3.09749 36.1065 4.57195 36.7173 6.10937 36.7173H40.8906C42.428 36.7173 43.9025 36.1065 44.9896 35.0194C46.0767 33.9323 46.6875 32.4578 46.6875 30.9204V14.979H0.3125V30.9204ZM7.14453 23.0532C7.14453 22.2296 7.47171 21.4397 8.0541 20.8573C8.63649 20.2749 9.42638 19.9478 10.25 19.9478H15.2187C16.0424 19.9478 16.8323 20.2749 17.4146 20.8573C17.997 21.4397 18.3242 22.2296 18.3242 23.0532V25.1235C18.3242 25.9472 17.997 26.737 17.4146 27.3194C16.8323 27.9018 16.0424 28.229 15.2187 28.229H10.25C9.42638 28.229 8.63649 27.9018 8.0541 27.3194C7.47171 26.737 7.14453 25.9472 7.14453 25.1235V23.0532Z" fill="#D270B7"/>
<path d="M40.8906 0.278442H6.10937C4.57195 0.278442 3.09749 0.889183 2.01036 1.97631C0.92324 3.06343 0.3125 4.53789 0.3125 6.07532V8.76672H46.6875V6.07532C46.6875 4.53789 46.0767 3.06343 44.9896 1.97631C43.9025 0.889183 42.428 0.278442 40.8906 0.278442Z" fill="#D270B7"/>
</svg>
