<svg width="23" height="23" viewBox="0 0 23 23" fill="none" xmlns="http://www.w3.org/2000/svg">
<path d="M23 11.5C23 17.8513 17.8513 23 11.5 23C5.14873 23 0 17.8513 0 11.5C0 5.14873 5.14873 0 11.5 0C17.8513 0 23 5.14873 23 11.5Z" fill="#F95B5B"/>
<path fill-rule="evenodd" clip-rule="evenodd" d="M6.79289 6.79289C7.18342 6.40237 7.81658 6.40237 8.20711 6.79289L11.75 10.3358L15.2929 6.79289C15.6834 6.40237 16.3166 6.40237 16.7071 6.79289C17.0976 7.18342 17.0976 7.81658 16.7071 8.20711L13.126 11.7882L16.7452 15.8332C17.1135 16.2448 17.0784 16.877 16.6668 17.2452C16.2552 17.6135 15.623 17.5784 15.2548 17.1668L11.7096 13.2046L7.70711 17.2071C7.31658 17.5976 6.68342 17.5976 6.29289 17.2071C5.90237 16.8166 5.90237 16.1834 6.29289 15.7929L10.3358 11.75L6.79289 8.20711C6.40237 7.81658 6.40237 7.18342 6.79289 6.79289Z" fill="#251B2F"/>
</svg>
