<svg width="47" height="39" viewBox="0 0 47 39" fill="none" xmlns="http://www.w3.org/2000/svg">
<path d="M33 37V33C33 30.8783 32.1835 28.8434 30.7301 27.3431C29.2767 25.8429 27.3054 25 25.25 25H9.75C7.69457 25 5.72333 25.8429 4.26992 27.3431C2.81652 28.8434 2 30.8783 2 33V37M45 37V33.2521C44.9987 31.5913 44.4087 29.9779 43.3227 28.6653C42.2368 27.3527 40.7163 26.4152 39 26M31 2C32.7163 2.42639 34.2376 3.39491 35.324 4.75286C36.4103 6.11081 37 7.78096 37 9.5C37 11.219 36.4103 12.8892 35.324 14.2471C34.2376 15.6051 32.7163 16.5736 31 17M25 10C25 14.4183 21.6421 18 17.5 18C13.3579 18 10 14.4183 10 10C10 5.58172 13.3579 2 17.5 2C21.6421 2 25 5.58172 25 10Z" stroke="#00C2FF" stroke-width="4" stroke-linecap="round" stroke-linejoin="round"/>
</svg>
