<svg width="15" height="16" viewBox="0 0 15 16" fill="none" xmlns="http://www.w3.org/2000/svg">
<path fill-rule="evenodd" clip-rule="evenodd" d="M3.80482 5.52858C4.06517 5.78893 4.06517 6.21104 3.80482 6.4714L2.94289 7.33334H8.66675C9.03495 7.33334 9.33342 7.6318 9.33342 8C9.33342 8.3682 9.03495 8.66667 8.66675 8.66667H2.94289L3.80482 9.5286C4.06517 9.78894 4.06517 10.2111 3.80482 10.4714C3.54447 10.7317 3.12236 10.7317 2.86201 10.4714L0.862009 8.4714C0.601661 8.21107 0.601661 7.78894 0.862009 7.5286L2.86201 5.52858C3.12236 5.26823 3.54447 5.26823 3.80482 5.52858Z" fill="white"/>
<path fill-rule="evenodd" clip-rule="evenodd" d="M9.16722 1.18531C9.18302 1.18794 9.19882 1.19059 9.21475 1.19324L10.809 1.45896C11.5716 1.58603 12.2046 1.69152 12.703 1.83988C13.2283 1.99627 13.6825 2.22135 14.0348 2.63724C14.3871 3.05314 14.5345 3.53816 14.6023 4.082C14.6668 4.59798 14.6667 5.23972 14.6667 6.01283V9.98713C14.6667 10.7603 14.6668 11.402 14.6023 11.918C14.5345 12.4618 14.3871 12.9469 14.0348 13.3627C13.6825 13.7786 13.2283 14.0037 12.703 14.1601C12.2046 14.3085 11.5716 14.4139 10.809 14.541L9.16722 14.8147C8.48715 14.9281 7.90762 15.0247 7.44075 15.0359C6.94448 15.0479 6.4541 14.969 6.04067 14.6187C5.62724 14.2685 5.46873 13.7978 5.39897 13.3063C5.33335 12.8439 5.33338 12.2564 5.33342 11.567V11.3773C5.33342 11.0091 5.6319 10.7106 6.00008 10.7106C6.36827 10.7106 6.66675 11.0091 6.66675 11.3773V11.5187C6.66675 12.2697 6.66835 12.7615 6.71908 13.1189C6.76722 13.4579 6.84442 13.5522 6.90248 13.6014C6.96055 13.6506 7.06628 13.7113 7.40855 13.703C7.76948 13.6943 8.25475 13.615 8.99555 13.4915L10.5481 13.2328C11.3631 13.0969 11.9133 13.004 12.3225 12.8822C12.7139 12.7657 12.8958 12.6445 13.0174 12.5009C13.1391 12.3573 13.2287 12.158 13.2793 11.7528C13.3322 11.3291 13.3334 10.7711 13.3334 9.9448V6.05516C13.3334 5.22888 13.3322 4.67086 13.2793 4.24719C13.2287 3.84198 13.1391 3.64268 13.0174 3.49908C12.8958 3.35548 12.7139 3.23431 12.3225 3.11779C11.9133 2.99596 11.3631 2.90303 10.5481 2.76718L8.99555 2.50843C8.25475 2.38497 7.76948 2.3057 7.40855 2.29698C7.06628 2.28871 6.96055 2.3494 6.90248 2.39859C6.84442 2.44778 6.76722 2.54209 6.71908 2.88106C6.66835 3.23848 6.66675 3.73021 6.66675 4.48122V4.75461C6.66675 5.1228 6.36827 5.42128 6.00008 5.42128C5.6319 5.42128 5.33342 5.1228 5.33342 4.75461V4.48122C5.33342 4.4651 5.33342 4.44902 5.33342 4.43301C5.33338 3.74359 5.33335 3.15601 5.39897 2.69369C5.46873 2.20218 5.62724 1.73146 6.04067 1.38123C6.4541 1.031 6.94448 0.952042 7.44075 0.964028C7.90755 0.975308 8.48715 1.07193 9.16722 1.18531Z" fill="white"/>
</svg>
